<?xml version="1.0" encoding="UTF-8"?><svg xmlns="http://www.w3.org/2000/svg" xmlns:xlink="http://www.w3.org/1999/xlink" fill-opacity="1" color-rendering="auto" color-interpolation="auto" text-rendering="auto" stroke="black" stroke-linecap="square" width="623" stroke-miterlimit="10" shape-rendering="auto" stroke-opacity="1" fill="black" stroke-dasharray="none" font-weight="normal" stroke-width="1" height="290" font-family="'Dialog'" font-style="normal" stroke-linejoin="miter" font-size="12px" stroke-dashoffset="0" image-rendering="auto">
  <!--Generated by ySVG 2.5-->
  <defs id="genericDefs"/>
  <g>
    <defs id="defs1">
      <linearGradient x1="447.5318" gradientUnits="userSpaceOnUse" x2="531.6158" y1="0" y2="40" id="linearGradient1" spreadMethod="reflect">
        <stop stop-opacity="1" stop-color="rgb(232,238,247)" offset="0%"/>
        <stop stop-opacity="1" stop-color="rgb(183,201,227)" offset="100%"/>
      </linearGradient>
      <linearGradient x1="468.7164" gradientUnits="userSpaceOnUse" x2="510.4312" y1="107.666" y2="147.666" id="linearGradient2" spreadMethod="reflect">
        <stop stop-opacity="1" stop-color="rgb(232,238,247)" offset="0%"/>
        <stop stop-opacity="1" stop-color="rgb(183,201,227)" offset="100%"/>
      </linearGradient>
      <linearGradient x1="402.7486" gradientUnits="userSpaceOnUse" x2="576.399" y1="167.666" y2="207.666" id="linearGradient3" spreadMethod="reflect">
        <stop stop-opacity="1" stop-color="rgb(232,238,247)" offset="0%"/>
        <stop stop-opacity="1" stop-color="rgb(183,201,227)" offset="100%"/>
      </linearGradient>
      <linearGradient x1="323.2964" gradientUnits="userSpaceOnUse" x2="364.1734" y1="107.666" y2="147.666" id="linearGradient4" spreadMethod="reflect">
        <stop stop-opacity="1" stop-color="rgb(232,238,247)" offset="0%"/>
        <stop stop-opacity="1" stop-color="rgb(183,201,227)" offset="100%"/>
      </linearGradient>
      <linearGradient x1="314.7213" gradientUnits="userSpaceOnUse" x2="372.7486" y1="167.666" y2="207.666" id="linearGradient5" spreadMethod="reflect">
        <stop stop-opacity="1" stop-color="rgb(232,238,247)" offset="0%"/>
        <stop stop-opacity="1" stop-color="rgb(183,201,227)" offset="100%"/>
      </linearGradient>
      <linearGradient x1="154.1922" gradientUnits="userSpaceOnUse" x2="201.0633" y1="107.666" y2="147.666" id="linearGradient6" spreadMethod="reflect">
        <stop stop-opacity="1" stop-color="rgb(232,238,247)" offset="0%"/>
        <stop stop-opacity="1" stop-color="rgb(183,201,227)" offset="100%"/>
      </linearGradient>
      <linearGradient x1="30.076" gradientUnits="userSpaceOnUse" x2="76.9471" y1="107.666" y2="147.666" id="linearGradient7" spreadMethod="reflect">
        <stop stop-opacity="1" stop-color="rgb(232,238,247)" offset="0%"/>
        <stop stop-opacity="1" stop-color="rgb(183,201,227)" offset="100%"/>
      </linearGradient>
      <clipPath clipPathUnits="userSpaceOnUse" id="clipPath1">
        <path d="M0 0 L623 0 L623 290 L0 290 L0 0 Z"/>
      </clipPath>
      <clipPath clipPathUnits="userSpaceOnUse" id="clipPath2">
        <path d="M-15 -52 L608 -52 L608 238 L-15 238 L-15 -52 Z"/>
      </clipPath>
    </defs>
    <g fill="white" text-rendering="geometricPrecision" shape-rendering="geometricPrecision" transform="translate(15,52)" stroke="white">
      <rect x="-15" width="623" height="290" y="-52" clip-path="url(#clipPath2)" stroke="none"/>
    </g>
    <g fill="rgb(245,245,245)" text-rendering="geometricPrecision" shape-rendering="geometricPrecision" transform="matrix(1,0,0,1,15,52)" stroke="rgb(245,245,245)">
      <rect x="298.721" y="-36.666" clip-path="url(#clipPath2)" width="293.6782" rx="4" ry="4" height="259.332" stroke="none"/>
      <rect x="298.721" y="-36.666" clip-path="url(#clipPath2)" fill="rgb(235,235,235)" width="293.6782" height="21.666" stroke="none"/>
    </g>
    <g font-size="15px" stroke-linecap="butt" transform="matrix(1,0,0,1,15,52)" text-rendering="geometricPrecision" font-family="sans-serif" shape-rendering="geometricPrecision" stroke-miterlimit="1.45">
      <text x="515.9705" xml:space="preserve" y="-20.1641" clip-path="url(#clipPath2)" stroke="none">Machine 1</text>
      <rect x="298.721" y="-36.666" clip-path="url(#clipPath2)" fill="none" width="293.6782" stroke-dasharray="6,2" rx="4" ry="4" height="259.332"/>
    </g>
    <g fill="url(#linearGradient1)" text-rendering="geometricPrecision" shape-rendering="geometricPrecision" transform="matrix(1,0,0,1,15,52)" stroke="url(#linearGradient1)">
      <path d="M447.5318 8 C450.0544 0 529.0933 0 531.6158 8 L531.6158 32 C529.0933 40 450.0544 40 447.5318 32 Z" stroke="none" clip-path="url(#clipPath2)"/>
    </g>
    <g text-rendering="geometricPrecision" stroke-miterlimit="1.45" shape-rendering="geometricPrecision" transform="matrix(1,0,0,1,15,52)" stroke-linecap="butt">
      <path fill="none" d="M447.5318 8 C450.0544 0 529.0933 0 531.6158 8 L531.6158 32 C529.0933 40 450.0544 40 447.5318 32 Z" clip-path="url(#clipPath2)"/>
      <path fill="none" d="M531.6158 8 C529.0933 16 450.0544 16 447.5318 8" clip-path="url(#clipPath2)"/>
      <text x="454.5318" xml:space="preserve" y="24.5352" clip-path="url(#clipPath2)" font-family="sans-serif" stroke="none">/Volumes/x</text>
    </g>
    <g fill="url(#linearGradient2)" text-rendering="geometricPrecision" shape-rendering="geometricPrecision" transform="matrix(1,0,0,1,15,52)" stroke="url(#linearGradient2)">
      <path d="M468.7164 107.666 L510.4312 107.666 L510.4312 147.666 L468.7164 147.666 Z" stroke="none" clip-path="url(#clipPath2)"/>
    </g>
    <g text-rendering="geometricPrecision" stroke-miterlimit="1.45" shape-rendering="geometricPrecision" transform="matrix(1,0,0,1,15,52)" stroke-linecap="butt">
      <path fill="none" d="M468.7164 107.666 L510.4312 107.666 L510.4312 147.666 L468.7164 147.666 Z" clip-path="url(#clipPath2)"/>
      <text x="475.7164" xml:space="preserve" y="132.2012" clip-path="url(#clipPath2)" font-family="sans-serif" stroke="none">FUSE</text>
    </g>
    <g fill="url(#linearGradient3)" text-rendering="geometricPrecision" shape-rendering="geometricPrecision" transform="matrix(1,0,0,1,15,52)" stroke="url(#linearGradient3)">
      <path d="M402.7486 167.666 L576.399 167.666 L576.399 207.666 L402.7486 207.666 Z" stroke="none" clip-path="url(#clipPath2)"/>
    </g>
    <g text-rendering="geometricPrecision" stroke-miterlimit="1.45" shape-rendering="geometricPrecision" transform="matrix(1,0,0,1,15,52)" stroke-linecap="butt">
      <path fill="none" d="M402.7486 167.666 L576.399 167.666 L576.399 207.666 L402.7486 207.666 Z" clip-path="url(#clipPath2)"/>
      <text x="471.0582" xml:space="preserve" y="185.1348" clip-path="url(#clipPath2)" font-family="sans-serif" stroke="none">Kernel</text>
      <text x="409.7486" xml:space="preserve" y="199.2676" clip-path="url(#clipPath2)" font-family="sans-serif" stroke="none">(Linux/OS X; Windows TBD)</text>
    </g>
    <g fill="url(#linearGradient4)" text-rendering="geometricPrecision" shape-rendering="geometricPrecision" transform="matrix(1,0,0,1,15,52)" stroke="url(#linearGradient4)">
      <path d="M323.2964 107.666 L364.1734 107.666 L364.1734 147.666 L323.2964 147.666 Z" stroke="none" clip-path="url(#clipPath2)"/>
    </g>
    <g text-rendering="geometricPrecision" stroke-miterlimit="1.45" shape-rendering="geometricPrecision" transform="matrix(1,0,0,1,15,52)" stroke-linecap="butt">
      <path fill="none" d="M323.2964 107.666 L364.1734 107.666 L364.1734 147.666 L323.2964 147.666 Z" clip-path="url(#clipPath2)"/>
      <text x="330.2964" xml:space="preserve" y="132.2012" clip-path="url(#clipPath2)" font-family="sans-serif" stroke="none">tfhfs</text>
    </g>
    <g fill="url(#linearGradient5)" text-rendering="geometricPrecision" shape-rendering="geometricPrecision" transform="matrix(1,0,0,1,15,52)" stroke="url(#linearGradient5)">
      <path d="M314.7213 175.666 C316.4621 167.666 371.0078 167.666 372.7486 175.666 L372.7486 199.666 C371.0078 207.666 316.4621 207.666 314.7213 199.666 Z" stroke="none" clip-path="url(#clipPath2)"/>
    </g>
    <g text-rendering="geometricPrecision" stroke-miterlimit="1.45" shape-rendering="geometricPrecision" transform="matrix(1,0,0,1,15,52)" stroke-linecap="butt">
      <path fill="none" d="M314.7213 175.666 C316.4621 167.666 371.0078 167.666 372.7486 175.666 L372.7486 199.666 C371.0078 207.666 316.4621 207.666 314.7213 199.666 Z" clip-path="url(#clipPath2)"/>
      <path fill="none" d="M372.7486 175.666 C371.0078 183.666 316.4621 183.666 314.7213 175.666" clip-path="url(#clipPath2)"/>
      <text x="321.7213" xml:space="preserve" y="192.2012" clip-path="url(#clipPath2)" font-family="sans-serif" stroke="none">Storage</text>
    </g>
    <g text-rendering="geometricPrecision" stroke-miterlimit="1.45" shape-rendering="geometricPrecision" transform="matrix(1,0,0,1,15,52)" stroke-linecap="butt">
      <path fill="none" d="M489.5738 38.0028 L489.5738 99.632" clip-path="url(#clipPath2)"/>
      <path d="M489.5738 107.632 L494.5738 95.632 L489.5738 98.632 L484.5738 95.632 Z" clip-path="url(#clipPath2)" stroke="none"/>
      <path fill="none" d="M489.5738 147.666 L489.5738 159.627" clip-path="url(#clipPath2)"/>
      <path d="M489.5738 167.627 L494.5738 155.627 L489.5738 158.627 L484.5738 155.627 Z" clip-path="url(#clipPath2)" stroke="none"/>
      <path fill="none" d="M372.1989 127.666 L460.7164 127.666" clip-path="url(#clipPath2)"/>
      <path d="M364.1989 127.666 L376.1989 132.666 L373.1989 127.666 L376.1989 122.666 Z" clip-path="url(#clipPath2)" stroke="none"/>
      <path d="M468.7164 127.666 L456.7164 122.666 L459.7164 127.666 L456.7164 132.666 Z" clip-path="url(#clipPath2)" stroke="none"/>
      <path fill="none" d="M343.7349 147.666 L343.7349 161.6348" clip-path="url(#clipPath2)"/>
      <path d="M343.7349 169.6348 L348.7349 157.6348 L343.7349 160.6348 L338.7349 157.6348 Z" clip-path="url(#clipPath2)" stroke="none"/>
    </g>
    <g fill="rgb(245,245,245)" text-rendering="geometricPrecision" shape-rendering="geometricPrecision" transform="matrix(1,0,0,1,15,52)" stroke="rgb(245,245,245)">
      <rect x="130.5696" y="71" clip-path="url(#clipPath2)" width="100" rx="4" ry="4" height="91.666" stroke="none"/>
      <rect x="130.5696" y="71" clip-path="url(#clipPath2)" fill="rgb(235,235,235)" width="100" height="21.666" stroke="none"/>
    </g>
    <g font-size="15px" stroke-linecap="butt" transform="matrix(1,0,0,1,15,52)" text-rendering="geometricPrecision" font-family="sans-serif" shape-rendering="geometricPrecision" stroke-miterlimit="1.45">
      <text x="154.1409" xml:space="preserve" y="87.502" clip-path="url(#clipPath2)" stroke="none">Machine 2</text>
      <rect x="130.5696" y="71" clip-path="url(#clipPath2)" fill="none" width="100" stroke-dasharray="6,2" rx="4" ry="4" height="91.666"/>
    </g>
    <g fill="url(#linearGradient6)" text-rendering="geometricPrecision" shape-rendering="geometricPrecision" transform="matrix(1,0,0,1,15,52)" stroke="url(#linearGradient6)">
      <path d="M154.1922 107.666 L201.0633 107.666 L201.0633 147.666 L154.1922 147.666 Z" stroke="none" clip-path="url(#clipPath2)"/>
    </g>
    <g text-rendering="geometricPrecision" stroke-miterlimit="1.45" shape-rendering="geometricPrecision" transform="matrix(1,0,0,1,15,52)" stroke-linecap="butt">
      <path fill="none" d="M154.1922 107.666 L201.0633 107.666 L201.0633 147.666 L154.1922 147.666 Z" clip-path="url(#clipPath2)"/>
      <text x="164.1893" xml:space="preserve" y="125.1348" clip-path="url(#clipPath2)" font-family="sans-serif" stroke="none">tfhfs</text>
      <text x="161.1922" xml:space="preserve" y="139.2676" clip-path="url(#clipPath2)" font-family="sans-serif" stroke="none">(et al)</text>
    </g>
    <g fill="rgb(255,204,0)" text-rendering="geometricPrecision" shape-rendering="geometricPrecision" transform="matrix(1,0,0,1,15,52)" stroke="rgb(255,204,0)">
      <rect x="162.887" width="105.834" height="30" y="5" clip-path="url(#clipPath2)" stroke="none"/>
    </g>
    <g text-rendering="geometricPrecision" stroke-miterlimit="1.45" shape-rendering="geometricPrecision" transform="matrix(1,0,0,1,15,52)" stroke-linecap="butt">
      <rect fill="none" x="162.887" width="105.834" height="30" y="5" clip-path="url(#clipPath2)"/>
      <text x="169.887" xml:space="preserve" y="24.5352" clip-path="url(#clipPath2)" font-family="sans-serif" stroke="none">tfhfs-connector</text>
      <path fill="none" d="M189.3455 35 L189.3455 99.6305" clip-path="url(#clipPath2)"/>
      <path d="M189.3456 107.6305 L194.3455 95.6305 L189.3455 98.6305 L184.3455 95.6305 Z" clip-path="url(#clipPath2)" stroke="none"/>
      <path fill="none" d="M242.2625 35 L242.2625 55.5 L343.7349 55.5 L343.7349 99.6405" clip-path="url(#clipPath2)"/>
      <path d="M343.7349 107.6405 L348.7349 95.6405 L343.7349 98.6405 L338.7349 95.6405 Z" clip-path="url(#clipPath2)" stroke="none"/>
    </g>
    <g fill="rgb(245,245,245)" text-rendering="geometricPrecision" shape-rendering="geometricPrecision" transform="matrix(1,0,0,1,15,52)" stroke="rgb(245,245,245)">
      <rect x="0.5696" y="71" clip-path="url(#clipPath2)" width="100" rx="4" ry="4" height="91.666" stroke="none"/>
      <rect x="0.5696" y="71" clip-path="url(#clipPath2)" fill="rgb(235,235,235)" width="100" height="21.666" stroke="none"/>
    </g>
    <g font-size="15px" stroke-linecap="butt" transform="matrix(1,0,0,1,15,52)" text-rendering="geometricPrecision" font-family="sans-serif" shape-rendering="geometricPrecision" stroke-miterlimit="1.45">
      <text x="24.1409" xml:space="preserve" y="87.502" clip-path="url(#clipPath2)" stroke="none">Machine 3</text>
      <rect x="0.5696" y="71" clip-path="url(#clipPath2)" fill="none" width="100" stroke-dasharray="6,2" rx="4" ry="4" height="91.666"/>
    </g>
    <g fill="url(#linearGradient7)" text-rendering="geometricPrecision" shape-rendering="geometricPrecision" transform="matrix(1,0,0,1,15,52)" stroke="url(#linearGradient7)">
      <path d="M30.076 107.666 L76.9471 107.666 L76.9471 147.666 L30.076 147.666 Z" stroke="none" clip-path="url(#clipPath2)"/>
    </g>
    <g text-rendering="geometricPrecision" stroke-miterlimit="1.45" shape-rendering="geometricPrecision" transform="matrix(1,0,0,1,15,52)" stroke-linecap="butt">
      <path fill="none" d="M30.076 107.666 L76.9471 107.666 L76.9471 147.666 L30.076 147.666 Z" clip-path="url(#clipPath2)"/>
      <text x="40.073" xml:space="preserve" y="125.1348" clip-path="url(#clipPath2)" font-family="sans-serif" stroke="none">tfhfs</text>
      <text x="37.076" xml:space="preserve" y="139.2676" clip-path="url(#clipPath2)" font-family="sans-serif" stroke="none">(et al)</text>
    </g>
    <g fill="rgb(255,204,0)" text-rendering="geometricPrecision" shape-rendering="geometricPrecision" transform="matrix(1,0,0,1,15,52)" stroke="rgb(255,204,0)">
      <rect x="27.0528" width="105.834" height="30" y="5" clip-path="url(#clipPath2)" stroke="none"/>
    </g>
    <g text-rendering="geometricPrecision" stroke-miterlimit="1.45" shape-rendering="geometricPrecision" transform="matrix(1,0,0,1,15,52)" stroke-linecap="butt">
      <rect fill="none" x="27.0528" width="105.834" height="30" y="5" clip-path="url(#clipPath2)"/>
      <text x="34.0528" xml:space="preserve" y="24.5352" clip-path="url(#clipPath2)" font-family="sans-serif" stroke="none">tfhfs-connector</text>
      <path fill="none" d="M106.4283 35 L106.4283 50.5 L165.91 50.5 L165.91 99.6381" clip-path="url(#clipPath2)"/>
      <path d="M165.91 107.6381 L170.91 95.6381 L165.91 98.6381 L160.91 95.6381 Z" clip-path="url(#clipPath2)" stroke="none"/>
      <path fill="none" d="M53.5113 35 L53.5115 99.6305" clip-path="url(#clipPath2)"/>
      <path d="M53.5115 107.6305 L58.5115 95.6305 L53.5115 98.6305 L48.5115 95.6305 Z" clip-path="url(#clipPath2)" stroke="none"/>
    </g>
  </g>
</svg>
